<svg aria-hidden="true" style="width:0;height:0;position:absolute;overflow:hidden" xmlns="http://www.w3.org/2000/svg"><defs><symbol id="icon-burger-focus" viewBox="0 0 32 32"><path fill="none" stroke="#4f2ee8" style="stroke:var(--color1,#4f2ee8)" stroke-linejoin="round" stroke-linecap="round" stroke-width="2.286" d="M22.666 13.334H4M28 8H4m24 10.666H4M22.666 24H4"/></symbol><symbol id="icon-burger" viewBox="0 0 32 32"><path stroke-linejoin="round" stroke-linecap="round" stroke-width="2.286" d="M22.666 13.334H4M28 8H4m24 10.666H4M22.666 24H4"/></symbol><symbol id="icon-arrow-narrow-right" viewBox="0 0 32 32"><path fill="none" stroke="#eac645" style="stroke:var(--color2,#eac645)" stroke-linejoin="round" stroke-linecap="round" stroke-width="3.2" d="M5.333 16h21.334m0 0-8-8m8 8-8 8"/></symbol><symbol id="icon-caret-down" viewBox="0 0 28 32"><path fill="#fff" style="fill:var(--color3,#fff)" d="M5.898 12H22.41l-7.422 8.39a1.112 1.112 0 0 1-.834.391h-.001a1.111 1.111 0 0 1-.833-.39l-.001-.002-7.422-8.39z"/></symbol><symbol id="icon-book1" viewBox="0 0 34 32"><path fill="#4f2ee8" style="fill:var(--color1,#4f2ee8)" d="M33.312 7.712c-.636-.35-1.39-.688-2.171-.966l-.111-.035v19.742c-1.61-.64-3.475-1.013-5.427-1.018h-.002c-2.948 0-5.865.885-8.533 2.592V8.173c-2.513-1.526-5.414-2.429-8.533-2.429-2.778 0-5.399.722-7.712 1.969-.512.262-.821.836-.821 1.444V28.98c0 .951.73 1.625 1.552 1.625.247 0 .496-.065.745-.196 1.877-1.035 3.987-1.691 6.237-1.691 3.211 0 6.176 1.346 8.533 3.282 2.357-1.936 5.323-3.282 8.533-3.282 2.251 0 4.359.657 6.237 1.707.249.131.497.197.745.197.807 0 1.552-.673 1.552-1.625V9.157c0-.608-.309-1.182-.821-1.444zM13.963 26.453c-1.61-.64-3.475-1.013-5.427-1.018h-.002c-1.845 0-3.662.345-5.429 1.018V10.191c1.591-.736 3.452-1.165 5.414-1.165h.016-.001c1.861 0 3.708.41 5.429 1.181v16.246zM27.929 0l-7.758 8.205v15.59l7.758-7.385V-.001z"/></symbol><symbol id="icon-book2" viewBox="0 0 35 32"><path fill="#4f2ee8" style="fill:var(--color1,#4f2ee8)" d="M34.352 7.713a15.87 15.87 0 0 0-2.235-.966L32 6.712v19.742c-1.663-.641-3.587-1.014-5.598-1.018H26.4c-3.04 0-6.048.886-8.8 2.592V8.172c-2.592-1.526-5.584-2.428-8.8-2.428-2.864 0-5.568.722-7.952 1.97C.32 7.976 0 8.55 0 9.157V29.005a1.6 1.6 0 0 0 1.6 1.6c.256 0 .512-.066.768-.197 1.936-1.034 4.112-1.69 6.432-1.69 3.312 0 6.368 1.346 8.8 3.282 2.432-1.936 5.488-3.282 8.8-3.282 2.32 0 4.496.657 6.432 1.707.256.131.512.197.768.197.832 0 1.6-.673 1.6-1.624V9.158c0-.608-.32-1.182-.848-1.445zM14.4 26.454c-1.663-.641-3.587-1.014-5.598-1.018H8.8c-1.904 0-3.776.344-5.6 1.018V10.192c1.643-.737 3.561-1.166 5.579-1.166h.022H8.8c1.92 0 3.824.41 5.6 1.182v16.246zM28.8 0l-8 8.205v15.59l8-7.385V0z"/></symbol><symbol id="icon-book3" viewBox="0 0 36 32"><path fill="#4f2ee8" style="fill:var(--color1,#4f2ee8)" d="M34.699 7.713a15.966 15.966 0 0 0-2.257-.965l-.119-.035v19.742a16.394 16.394 0 0 0-5.656-1.017c-3.071 0-6.11.886-8.889 2.593V8.175c-2.618-1.527-5.64-2.429-8.889-2.429-2.893 0-5.624.722-8.033 1.969C.323 7.979 0 8.552 0 9.159v19.84c0 .888.72 1.608 1.608 1.608h.008c.259 0 .517-.065.776-.197 1.956-1.034 4.153-1.69 6.497-1.69 3.345 0 6.433 1.345 8.889 3.282 2.456-1.937 5.544-3.282 8.889-3.282 2.344 0 4.542.656 6.497 1.707.258.131.517.197.776.197a1.618 1.618 0 0 0 1.616-1.618V9.158c0-.607-.323-1.181-.857-1.444zm-20.154 18.74c-1.842-.673-3.733-1.017-5.656-1.017s-3.814.345-5.656 1.017V10.19c1.66-.737 3.597-1.166 5.634-1.166h.023-.001c1.94 0 3.863.41 5.657 1.182v16.247zM29.091 0 21.01 8.205v15.59l8.08-7.385V0z"/></symbol><symbol id="icon-book4" viewBox="0 0 35 32"><path fill="#4f2ee8" style="fill:var(--color1,#4f2ee8)" d="M34.352 7.713a15.87 15.87 0 0 0-2.235-.966L32 6.712v19.742a16.089 16.089 0 0 0-5.6-1.017c-3.04 0-6.048.886-8.8 2.593V8.173c-2.592-1.526-5.584-2.429-8.8-2.429-2.864 0-5.568.722-7.952 1.969C.32 7.977 0 8.55 0 9.157v19.824a1.6 1.6 0 0 0 1.6 1.624c.256 0 .512-.065.768-.197 1.936-1.034 4.112-1.69 6.432-1.69 3.312 0 6.368 1.346 8.8 3.282 2.432-1.936 5.488-3.282 8.8-3.282 2.32 0 4.496.656 6.432 1.706.256.132.512.197.768.197.832 0 1.6-.673 1.6-1.625V9.156c0-.607-.32-1.181-.848-1.444zM14.4 26.453c-1.824-.673-3.696-1.017-5.6-1.017s-3.776.344-5.6 1.017V10.191c1.643-.736 3.561-1.165 5.578-1.165h.023H8.8c1.92 0 3.824.41 5.6 1.182v16.246zM28.8 0l-8 8.205v15.59l8-7.384V.001z"/></symbol><symbol id="icon-lock" viewBox="0 0 32 32"><path stroke-linejoin="round" stroke-linecap="round" stroke-width="2.286" d="M22.666 14.666v-4a6.666 6.666 0 0 0-13.332 0v4M10.4 28h11.2c2.24 0 3.36 0 4.216-.435a4.03 4.03 0 0 0 1.738-1.726l.011-.022c.435-.856.435-1.976.435-4.216v-.534c0-2.24 0-3.36-.435-4.216a4.03 4.03 0 0 0-1.726-1.738l-.022-.011c-.856-.434-1.976-.434-4.216-.434h-11.2c-2.24 0-3.36 0-4.216.434a4.03 4.03 0 0 0-1.738 1.726l-.011.022c-.435.857-.435 1.977-.435 4.217v.533c0 2.24 0 3.36.435 4.216a4.03 4.03 0 0 0 1.726 1.738l.022.011C7.04 28 8.16 28 10.4 28z"/></symbol><symbol id="icon-logo-light" viewBox="0 0 126 32"><path fill="#f6f6f6" style="fill:var(--color4,#f6f6f6)" d="m0 2.286 14.008 13.862 13.421 13.567V2.286H0z"/><path fill="#f6f6f6" style="fill:var(--color4,#f6f6f6)" d="m3.821 5.91 10.237 10.139 9.649 9.845H3.821V5.91z"/><path fill="#4f2ee8" style="fill:var(--color1,#4f2ee8)" d="M23.771 25.959 13.533 15.82 3.885 5.975h19.886v19.984z"/><path fill="#4f2ee8" style="fill:var(--color1,#4f2ee8)" d="m7.935 10.024 11.657 11.658H7.935V10.025z"/><path fill="#f6f6f6" style="fill:var(--color4,#f6f6f6)" d="m7.935 10.024 11.657 11.658V10.025H7.935z"/><path style="fill:var(--color5,#000)" d="M47.659 12.266c0-2.366-1.749-3.703-4.773-3.703h-6.315v14.709h6.665c3.045 0 4.999-1.461 4.999-4.299 0-2.201-1.317-3.333-2.859-3.6v-.041c1.214-.411 2.283-1.255 2.283-3.065zm-8.64 2.387v-4.011h3.929c1.461 0 2.263.72 2.263 2.016s-.658 1.995-2.407 1.995h-3.785zm0 1.83h4.299c1.543 0 2.469.843 2.469 2.345 0 1.378-.638 2.366-2.736 2.366h-4.032v-4.711zm15.498 7.098c-3.291 0-5.287-2.283-5.287-5.554s1.995-5.554 5.287-5.554c3.291 0 5.287 2.283 5.287 5.554s-1.995 5.554-5.287 5.554zm0-1.77c2.057 0 3.127-1.625 3.127-3.785 0-2.181-1.07-3.785-3.127-3.785s-3.127 1.605-3.127 3.785c0 2.16 1.07 3.785 3.127 3.785zm11.51 1.77c-3.291 0-5.287-2.283-5.287-5.554s1.995-5.554 5.287-5.554c3.291 0 5.287 2.283 5.287 5.554s-1.995 5.554-5.287 5.554zm0-1.77c2.057 0 3.127-1.625 3.127-3.785 0-2.181-1.07-3.785-3.127-3.785S62.9 15.846 62.9 18.026c0 2.16 1.07 3.785 3.127 3.785zm6.78-13.248v14.709h2.16v-3.806l1.461-1.378 3.312 5.184h2.592l-4.423-6.603L81.9 12.76h-2.654l-4.279 4.217V8.563h-2.16zm14.731 8.352c-1.522-.35-2.695-.432-2.695-1.502 0-.741.699-1.234 1.995-1.234 1.687 0 2.098.843 2.242 1.666h2.098c-.144-1.831-1.502-3.374-4.361-3.374-2.633 0-4.155 1.378-4.155 3.106 0 2.386 2.263 2.715 3.929 3.106 1.543.37 2.798.473 2.798 1.79 0 .658-.638 1.399-2.139 1.399-2.222 0-2.715-.967-2.818-2.098h-2.098c.103 2.222 1.563 3.806 4.958 3.806 2.551 0 4.279-1.255 4.279-3.271 0-2.51-2.098-2.942-4.032-3.394zm11.095-4.443c-1.769 0-2.859.823-3.415 1.646h-.041V8.564h-2.16v14.709h2.16v-6.398c0-1.563 1.131-2.571 2.715-2.571 1.502 0 2.098.905 2.098 2.325v6.645h2.181v-7.262c0-2.407-1.543-3.538-3.538-3.538zm10.162 9.339c-1.913 0-3.045-1.461-3.045-3.23h8.064c0-3.744-1.666-6.11-5.061-6.11-3.168 0-5.163 2.139-5.163 5.554 0 3.291 1.995 5.554 5.266 5.554 2.695 0 4.258-1.522 4.793-3.518h-2.16c-.185.638-.905 1.749-2.695 1.749zm-.041-7.632c1.749 0 2.901 1.173 2.901 2.798h-5.904c0-1.625 1.255-2.798 3.003-2.798zm6.583-5.616v14.709h2.181V8.563h-2.181zm9.236 1.77V8.564a7.32 7.32 0 0 0-1.438-.144h-.002c-1.728 0-2.674.782-2.674 3.003v1.337h-1.502v1.769h1.502v8.743h2.181v-8.743h1.934V12.76h-1.934v-1.152c0-1.193.535-1.337 1.934-1.275z"/></symbol><symbol id="icon-logo-dark" viewBox="0 0 126 32"><path fill="#f6f6f6" style="fill:var(--color4,#f6f6f6)" d="m0 2.286 14.008 13.862 13.421 13.567V2.286H0z"/><path fill="#f6f6f6" style="fill:var(--color4,#f6f6f6)" d="m3.821 5.91 10.237 10.139 9.649 9.845H3.821V5.91z"/><path fill="#4f2ee8" style="fill:var(--color1,#4f2ee8)" d="M23.771 25.959 13.533 15.82 3.885 5.975h19.886v19.984z"/><path fill="#4f2ee8" style="fill:var(--color1,#4f2ee8)" d="m7.935 10.024 11.657 11.658H7.935V10.025z"/><path fill="#f6f6f6" style="fill:var(--color4,#f6f6f6)" d="m7.935 10.024 11.657 11.658V10.025H7.935z"/><path fill="#f3f3f3" style="fill:var(--color6,#f3f3f3)" d="M47.659 12.266c0-2.366-1.749-3.703-4.773-3.703h-6.315v14.709h6.665c3.045 0 4.999-1.461 4.999-4.299 0-2.201-1.317-3.333-2.859-3.6v-.041c1.214-.411 2.283-1.255 2.283-3.065zm-8.64 2.387v-4.011h3.929c1.461 0 2.263.72 2.263 2.016s-.658 1.995-2.407 1.995h-3.785zm0 1.83h4.299c1.543 0 2.469.843 2.469 2.345 0 1.378-.638 2.366-2.736 2.366h-4.032v-4.711zm15.498 7.098c-3.291 0-5.287-2.283-5.287-5.554s1.995-5.554 5.287-5.554c3.291 0 5.287 2.283 5.287 5.554s-1.995 5.554-5.287 5.554zm0-1.77c2.057 0 3.127-1.625 3.127-3.785 0-2.181-1.07-3.785-3.127-3.785s-3.127 1.605-3.127 3.785c0 2.16 1.07 3.785 3.127 3.785zm11.51 1.77c-3.291 0-5.287-2.283-5.287-5.554s1.995-5.554 5.287-5.554c3.291 0 5.287 2.283 5.287 5.554s-1.995 5.554-5.287 5.554zm0-1.77c2.057 0 3.127-1.625 3.127-3.785 0-2.181-1.07-3.785-3.127-3.785S62.9 15.846 62.9 18.026c0 2.16 1.07 3.785 3.127 3.785zm6.78-13.248v14.709h2.16v-3.806l1.461-1.378 3.312 5.184h2.592l-4.423-6.603L81.9 12.76h-2.654l-4.279 4.217V8.563h-2.16zm14.731 8.352c-1.522-.35-2.695-.432-2.695-1.502 0-.741.699-1.234 1.995-1.234 1.687 0 2.098.843 2.242 1.666h2.098c-.144-1.831-1.502-3.374-4.361-3.374-2.633 0-4.155 1.378-4.155 3.106 0 2.386 2.263 2.715 3.929 3.106 1.543.37 2.798.473 2.798 1.79 0 .658-.638 1.399-2.139 1.399-2.222 0-2.715-.967-2.818-2.098h-2.098c.103 2.222 1.563 3.806 4.958 3.806 2.551 0 4.279-1.255 4.279-3.271 0-2.51-2.098-2.942-4.032-3.394zm11.095-4.443c-1.769 0-2.859.823-3.415 1.646h-.041V8.564h-2.16v14.709h2.16v-6.398c0-1.563 1.131-2.571 2.715-2.571 1.502 0 2.098.905 2.098 2.325v6.645h2.181v-7.262c0-2.407-1.543-3.538-3.538-3.538zm10.162 9.339c-1.913 0-3.045-1.461-3.045-3.23h8.064c0-3.744-1.666-6.11-5.061-6.11-3.168 0-5.163 2.139-5.163 5.554 0 3.291 1.995 5.554 5.266 5.554 2.695 0 4.258-1.522 4.793-3.518h-2.16c-.185.638-.905 1.749-2.695 1.749zm-.041-7.632c1.749 0 2.901 1.173 2.901 2.798h-5.904c0-1.625 1.255-2.798 3.003-2.798zm6.583-5.616v14.709h2.181V8.563h-2.181zm9.236 1.77V8.564a7.32 7.32 0 0 0-1.438-.144h-.002c-1.728 0-2.674.782-2.674 3.003v1.337h-1.502v1.769h1.502v8.743h2.181v-8.743h1.934V12.76h-1.934v-1.152c0-1.193.535-1.337 1.934-1.275z"/></symbol><symbol id="icon-logo-title" viewBox="0 0 32 32"><path fill="#f6f6f6" style="fill:var(--color4,#f6f6f6)" d="m0 0 16.343 16.172L32 32V0H0z"/><path fill="#f6f6f6" style="fill:var(--color4,#f6f6f6)" d="M4.457 4.228 16.4 16.057l11.257 11.485h-23.2V4.227z"/><path fill="#4f2ee8" style="fill:var(--color1,#4f2ee8)" d="M27.733 27.619 15.789 15.79 4.533 4.305h23.2V27.62z"/><path fill="#4f2ee8" style="fill:var(--color1,#4f2ee8)" d="m9.257 9.028 13.6 13.601h-13.6v-13.6z"/><path fill="#f6f6f6" style="fill:var(--color4,#f6f6f6)" d="m9.257 9.028 13.6 13.601v-13.6h-13.6z"/></symbol><symbol id="icon-mail" viewBox="0 0 32 32"><path stroke-linejoin="round" stroke-linecap="round" stroke-width="2.286" d="m28.666 24-8.857-8m-7.618 0-8.857 8M2.666 9.334l10.887 7.621c.881.617 1.322.926 1.802 1.045.423.106.866.106 1.289 0 .48-.119.921-.427 1.802-1.045l10.887-7.621M9.066 26.666h13.867c2.24 0 3.36 0 4.216-.435a4.03 4.03 0 0 0 1.738-1.726l.011-.022c.434-.855.434-1.976.434-4.216v-8.533c0-2.24 0-3.36-.434-4.217a4.027 4.027 0 0 0-1.726-1.737l-.022-.011c-.857-.435-1.977-.435-4.217-.435H9.068c-2.24 0-3.36 0-4.216.435a4.03 4.03 0 0 0-1.738 1.726l-.01.022c-.434.855-.434 1.975-.434 4.216v8.533c0 2.24 0 3.36.434 4.217A4.027 4.027 0 0 0 4.83 26.22l.022.011c.856.435 1.977.435 4.217.435z"/></symbol><symbol id="icon-arrow-back" viewBox="0 0 32 32"><path d="M4.5 19.6 15.7 8.367c.133-.133.277-.227.433-.283.146-.053.314-.084.489-.084h.011-.001c.177 0 .344.028.5.084.17.064.315.16.433.282L28.799 19.6c.311.311.467.7.467 1.167s-.167.867-.5 1.2c-.292.308-.705.5-1.162.5h-.01c-.457 0-.87-.192-1.161-.499l-.001-.001-9.8-9.8-9.8 9.8c-.311.311-.693.467-1.149.467s-.851-.167-1.184-.5a1.597 1.597 0 0 1-.5-1.162v-.01c0-.457.192-.87.499-1.161l.001-.001z"/></symbol><symbol id="icon-user" viewBox="0 0 32 32"><path fill="#4f2ee8" style="fill:var(--color1,#4f2ee8)" d="M5.334 29.334c.107-5.81 4.841-10.478 10.666-10.478s10.56 4.669 10.666 10.468v.01H5.334zm10.666-12h-.002A7.998 7.998 0 0 1 8 9.336v-.004a7.998 7.998 0 0 1 7.998-7.998h.004A7.998 7.998 0 0 1 24 9.332v.004a7.998 7.998 0 0 1-7.998 7.998H16z"/></symbol><symbol id="icon-trash" viewBox="0 0 32 32"><path fill="none" stroke="#fff" style="stroke:var(--color3,#fff)" stroke-linejoin="round" stroke-linecap="round" stroke-width="2.909" d="M12 4h8M4 8h24m-2.666 0-.935 14.026c-.141 2.103-.211 3.156-.665 3.953a4.031 4.031 0 0 1-1.707 1.61l-.023.01c-.828.4-1.881.4-3.99.4h-4.026c-2.109 0-3.162 0-3.99-.4a4.028 4.028 0 0 1-1.721-1.601l-.01-.019c-.454-.797-.524-1.85-.665-3.953L6.667 8m6.667 6v6.666M18.666 14v6.666"/></symbol><symbol id="icon-x-close-focus" viewBox="0 0 32 32"><path fill="none" stroke="#4f2ee8" style="stroke:var(--color1,#4f2ee8)" stroke-linejoin="round" stroke-linecap="round" stroke-width="3.429" d="M24 8 8 24M8 8l16 16"/></symbol><symbol id="icon-x-close" viewBox="0 0 32 32"><path stroke-linejoin="round" stroke-linecap="round" stroke-width="3.429" d="M24 8 8 24M8 8l16 16"/></symbol><symbol id="icon-support-ukraine" viewBox="0 0 20 32"><path fill="#fff" style="fill:var(--color1,#fff)" d="M9.005 30.888A8.656 8.656 0 0 1 5.6 25.592l-.009-.055H0V2.42c2.991 1.443 5.153 4.6 5.388 7.876l.845 6.493-.407-.045c-.893 0-1.676.812-1.676 1.608 0 .752.595 1.383 1.379 1.548l1.018.226c1.675-3.051 2.63-6.042 2.63-8.973 0-2.646-.36-5.291-.422-7.997 0-1.202.485-2.3 1.253-3.156.783.857 1.253 1.954 1.253 3.156 0 2.706-.423 5.351-.423 7.997 0 2.93.955 5.922 2.631 8.973l1.018-.226c.783-.165 1.378-.811 1.378-1.548 0-.811-.783-1.608-1.675-1.608l-.423.06.845-6.493C15.035 7.034 17.01 3.863 20 2.435v23.117h-5.576c-.422 2.18-1.613 4.148-3.414 5.35-.423.286-.783.632-1.018 1.098-.22-.466-.58-.812-.987-1.112zM2.647 17.556c.235-.857.893-1.609 1.738-2.075l-.658-5.35a8.283 8.283 0 0 0-2.043-4.382l.007.008V17.54h.956v.015zm2.819 6.373c0-.812.125-1.548.298-2.3l-.784-.18c-1.143-.346-2.036-1.203-2.333-2.3H1.69v4.78h3.775zm3.712 0c0-.977-.783-1.834-1.801-1.954-.173.63-.298 1.262-.298 1.954h2.099zm0 1.623H7.314c.298 1.262.955 2.42 1.864 3.397v-3.397zm2.63-5.005c-.72-1.263-1.377-2.585-1.8-3.968-.423 1.383-1.08 2.705-1.801 3.968.72.165 1.315.631 1.8 1.157.486-.526 1.082-.992 1.802-1.157zm1.144 3.382c0-.692-.125-1.323-.297-1.954-1.018.12-1.801.977-1.801 1.954h2.098zm-.235 1.623h-1.863v3.397c.908-.992 1.566-2.135 1.863-3.397zm5.623-1.623v-4.78h-.956c-.297 1.097-1.206 1.954-2.333 2.3l-.783.18c.172.752.297 1.488.297 2.3h3.775zm0-6.373v-11.8c-1.08 1.203-1.864 2.706-2.036 4.375l-.658 5.35c.846.466 1.504 1.203 1.738 2.075h.956z"/></symbol><symbol id="icon-bag" viewBox="0 0 32 32"><path fill="#fff" style="fill:var(--color1,#fff)" d="M25.333 9.333h-4V8a5.332 5.332 0 1 0-10.666 0v1.333h-4a1.335 1.335 0 0 0-1.334 1.334v14.667a4.003 4.003 0 0 0 4 4h13.333a4.003 4.003 0 0 0 4-4V10.667a1.333 1.333 0 0 0-1.333-1.334zM13.333 8a2.668 2.668 0 0 1 5.334 0v1.333h-5.333V8zM24 25.333a1.335 1.335 0 0 1-1.334 1.334H9.333a1.335 1.335 0 0 1-1.334-1.334V12h2.667v1.333a1.335 1.335 0 0 0 2.277.943c.25-.251.391-.589.391-.943V12h5.333v1.333a1.335 1.335 0 0 0 2.277.943c.25-.251.391-.589.391-.943V12h2.667v13.333z"/></symbol><symbol id="icon-bag-black" viewBox="0 0 32 32"><path d="M25.334 9.333h-4V8a5.334 5.334 0 1 0-10.668 0v1.333h-4c-.736 0-1.333.597-1.333 1.333V25.334a4 4 0 0 0 4 4h13.333a4 4 0 0 0 4-4V10.666c0-.736-.597-1.333-1.333-1.333h-.002zM13.334 8a2.668 2.668 0 0 1 5.332-.004V9.332h-5.334V7.999zM24 25.333v.002c0 .736-.597 1.333-1.333 1.333H9.333A1.333 1.333 0 0 1 8 25.335V12h2.667v1.333a1.333 1.333 0 0 0 2.666 0V12h5.334v1.333a1.334 1.334 0 1 0 2.668 0V12h2.666v13.333z"/></symbol><symbol id="icon-up" viewBox="0 0 32 32"><path fill="#4f2ee8" style="fill:var(--color1,#4f2ee8)" opacity=".3" d="M32 16c0 8.837-7.163 16-16 16S0 24.837 0 16 7.163 0 16 0s16 7.163 16 16z"/><path fill="#4f2ee8" style="fill:var(--color1,#4f2ee8)" d="M29.5 16c0 7.456-6.044 13.5-13.5 13.5S2.5 23.456 2.5 16 8.544 2.5 16 2.5 29.5 8.544 29.5 16z"/><path fill="#fff" style="fill:var(--color2,#fff)" d="m11.688 17.35 4.2-4.213a.436.436 0 0 1 .163-.106.54.54 0 0 1 .183-.031h.008c.066 0 .129.012.187.033l-.004-.001a.43.43 0 0 1 .162.106l4.213 4.213c.116.116.175.262.175.438s-.063.325-.188.45a.598.598 0 0 1-.436.188h-.004a.598.598 0 0 1-.435-.187l-3.675-3.675-3.675 3.675c-.117.116-.26.175-.431.175s-.319-.063-.444-.188a.598.598 0 0 1-.188-.436v-.004c0-.171.072-.326.187-.435z"/></symbol></defs></svg>