<svg aria-hidden="true" style="position: absolute; width: 0; height: 0; overflow: hidden;" version="1.1" xmlns="http://www.w3.org/2000/svg" xmlns:xlink="http://www.w3.org/1999/xlink">
<defs>
<symbol id="icon-burger-focus" viewBox="0 0 32 32">
<path fill="none" stroke="#4f2ee8" style="stroke: var(--color1, #4f2ee8)" stroke-linejoin="round" stroke-linecap="round" stroke-miterlimit="4" stroke-width="2.2857" d="M22.666 13.334h-18.666M28 8h-24M28 18.666h-24M22.666 24h-18.666"></path>
</symbol>
<symbol id="icon-burger" viewBox="0 0 32 32">
<path stroke-linejoin="round" stroke-linecap="round" stroke-miterlimit="4" stroke-width="2.2857" d="M22.666 13.334h-18.666M28 8h-24M28 18.666h-24M22.666 24h-18.666"></path>
</symbol>
<symbol id="icon-arrow-narrow-right" viewBox="0 0 32 32">
<path fill="none" stroke="#eac645" style="stroke: var(--color2, #eac645)" stroke-linejoin="round" stroke-linecap="round" stroke-miterlimit="4" stroke-width="3.2" d="M5.333 16h21.334M26.667 16l-8-8M26.667 16l-8 8"></path>
</symbol>
<symbol id="icon-caret-down" viewBox="0 0 28 32">
<path fill="#fff" style="fill: var(--color3, #fff)" d="M5.898 12h16.512l-7.422 8.39c-0.203 0.237-0.501 0.387-0.834 0.391h-0.001c-0.334-0.004-0.632-0.155-0.833-0.39l-0.001-0.002-7.422-8.39z"></path>
</symbol>
<symbol id="icon-book1" viewBox="0 0 34 32">
<path fill="#4f2ee8" style="fill: var(--color1, #4f2ee8)" d="M33.312 7.712c-0.636-0.35-1.39-0.688-2.171-0.966l-0.111-0.035v19.742c-1.61-0.64-3.475-1.013-5.427-1.018h-0.002c-2.948 0-5.865 0.885-8.533 2.592v-19.854c-2.513-1.526-5.414-2.429-8.533-2.429-2.778 0-5.399 0.722-7.712 1.969-0.512 0.262-0.821 0.836-0.821 1.444v19.823c0 0.951 0.73 1.625 1.552 1.625 0.247 0 0.496-0.065 0.745-0.196 1.877-1.035 3.987-1.691 6.237-1.691 3.211 0 6.176 1.346 8.533 3.282 2.357-1.936 5.323-3.282 8.533-3.282 2.251 0 4.359 0.657 6.237 1.707 0.249 0.131 0.497 0.197 0.745 0.197 0.807 0 1.552-0.673 1.552-1.625v-19.84c0-0.608-0.309-1.182-0.821-1.444zM13.963 26.453c-1.61-0.64-3.475-1.013-5.427-1.018h-0.002c-1.845 0-3.662 0.345-5.429 1.018v-16.262c1.591-0.736 3.452-1.165 5.414-1.165 0.005 0 0.011 0 0.016 0h-0.001c1.861 0 3.708 0.41 5.429 1.181v16.246zM27.929 0l-7.758 8.205v15.59l7.758-7.385v-16.411z"></path>
</symbol>
<symbol id="icon-book2" viewBox="0 0 35 32">
<path fill="#4f2ee8" style="fill: var(--color1, #4f2ee8)" d="M34.352 7.713c-0.653-0.349-1.43-0.687-2.235-0.966l-0.117-0.035v19.742c-1.663-0.641-3.587-1.014-5.598-1.018h-0.002c-3.040 0-6.048 0.886-8.8 2.592v-19.856c-2.592-1.526-5.584-2.428-8.8-2.428-2.864 0-5.568 0.722-7.952 1.97-0.528 0.262-0.848 0.836-0.848 1.443v19.824c-0 0.007-0 0.016-0 0.024 0 0.884 0.716 1.6 1.6 1.6 0 0 0 0 0 0v0c0.256 0 0.512-0.066 0.768-0.197 1.936-1.034 4.112-1.69 6.432-1.69 3.312 0 6.368 1.346 8.8 3.282 2.432-1.936 5.488-3.282 8.8-3.282 2.32 0 4.496 0.657 6.432 1.707 0.256 0.131 0.512 0.197 0.768 0.197 0.832 0 1.6-0.673 1.6-1.624v-19.84c0-0.608-0.32-1.182-0.848-1.445zM14.4 26.454c-1.663-0.641-3.587-1.014-5.598-1.018h-0.002c-1.904 0-3.776 0.344-5.6 1.018v-16.262c1.643-0.737 3.561-1.166 5.579-1.166 0.007 0 0.014 0 0.022 0h-0.001c1.92 0 3.824 0.41 5.6 1.182v16.246zM28.8 0l-8 8.205v15.59l8-7.385v-16.41z"></path>
</symbol>
<symbol id="icon-book3" viewBox="0 0 36 32">
<path fill="#4f2ee8" style="fill: var(--color1, #4f2ee8)" d="M34.699 7.713c-0.659-0.349-1.444-0.687-2.257-0.965l-0.119-0.035v19.742c-1.842-0.673-3.733-1.017-5.656-1.017-3.071 0-6.11 0.886-8.889 2.593v-19.856c-2.618-1.527-5.64-2.429-8.889-2.429-2.893 0-5.624 0.722-8.033 1.969-0.533 0.264-0.856 0.837-0.856 1.444v19.824c-0 0.005-0 0.010-0 0.016 0 0.888 0.72 1.608 1.608 1.608 0.003 0 0.005 0 0.008-0h-0c0.259 0 0.517-0.065 0.776-0.197 1.956-1.034 4.153-1.69 6.497-1.69 3.345 0 6.433 1.345 8.889 3.282 2.456-1.937 5.544-3.282 8.889-3.282 2.344 0 4.542 0.656 6.497 1.707 0.258 0.131 0.517 0.197 0.776 0.197 0.893-0.001 1.616-0.725 1.616-1.618 0-0.003 0-0.005-0-0.008v0-19.84c0-0.607-0.323-1.181-0.857-1.444zM14.545 26.453c-1.842-0.673-3.733-1.017-5.656-1.017s-3.814 0.345-5.656 1.017v-16.263c1.66-0.737 3.597-1.166 5.634-1.166 0.008 0 0.016 0 0.023 0h-0.001c1.94 0 3.863 0.41 5.657 1.182v16.247zM29.091 0l-8.081 8.205v15.59l8.080-7.385v-16.41z"></path>
</symbol>
<symbol id="icon-book4" viewBox="0 0 35 32">
<path fill="#4f2ee8" style="fill: var(--color1, #4f2ee8)" d="M34.352 7.713c-0.653-0.349-1.43-0.687-2.235-0.966l-0.117-0.035v19.742c-1.824-0.673-3.696-1.017-5.6-1.017-3.040 0-6.048 0.886-8.8 2.593v-19.857c-2.592-1.526-5.584-2.429-8.8-2.429-2.864 0-5.568 0.722-7.952 1.969-0.528 0.264-0.848 0.837-0.848 1.444v19.824c0 0.952 0.752 1.624 1.6 1.624 0.256 0 0.512-0.065 0.768-0.197 1.936-1.034 4.112-1.69 6.432-1.69 3.312 0 6.368 1.346 8.8 3.282 2.432-1.936 5.488-3.282 8.8-3.282 2.32 0 4.496 0.656 6.432 1.706 0.256 0.132 0.512 0.197 0.768 0.197 0.832 0 1.6-0.673 1.6-1.625v-19.84c0-0.607-0.32-1.181-0.848-1.444zM14.4 26.453c-1.824-0.673-3.696-1.017-5.6-1.017s-3.776 0.344-5.6 1.017v-16.262c1.643-0.736 3.561-1.165 5.578-1.165 0.008 0 0.015 0 0.023 0h-0.001c1.92 0 3.824 0.41 5.6 1.182v16.246zM28.8 0l-8 8.205v15.59l8-7.384v-16.41z"></path>
</symbol>
<symbol id="icon-lock" viewBox="0 0 32 32">
<path stroke-linejoin="round" stroke-linecap="round" stroke-miterlimit="4" stroke-width="2.2857" d="M22.666 14.666v-4c0-3.682-2.985-6.666-6.666-6.666s-6.666 2.985-6.666 6.666v0 4M10.4 28h11.2c2.24 0 3.36 0 4.216-0.435 0.756-0.391 1.358-0.992 1.738-1.726l0.011-0.022c0.435-0.856 0.435-1.976 0.435-4.216v-0.534c0-2.24 0-3.36-0.435-4.216-0.391-0.756-0.992-1.358-1.726-1.738l-0.022-0.011c-0.856-0.434-1.976-0.434-4.216-0.434h-11.2c-2.24 0-3.36 0-4.216 0.434-0.756 0.391-1.358 0.992-1.738 1.726l-0.011 0.022c-0.435 0.857-0.435 1.977-0.435 4.217v0.533c0 2.24 0 3.36 0.435 4.216 0.391 0.756 0.992 1.358 1.726 1.738l0.022 0.011c0.856 0.435 1.976 0.435 4.216 0.435z"></path>
</symbol>
<symbol id="icon-logo-light" viewBox="0 0 126 32">
<path fill="#f6f6f6" style="fill: var(--color4, #f6f6f6)" d="M0 2.286l14.008 13.862 13.421 13.567v-27.429h-27.429z"></path>
<path fill="#f6f6f6" style="fill: var(--color4, #f6f6f6)" d="M3.821 5.91l10.237 10.139 9.649 9.845h-19.886v-19.984z"></path>
<path fill="#4f2ee8" style="fill: var(--color1, #4f2ee8)" d="M23.771 25.959l-10.238-10.139-9.648-9.845h19.886v19.984z"></path>
<path fill="#4f2ee8" style="fill: var(--color1, #4f2ee8)" d="M7.935 10.024l11.657 11.658h-11.657v-11.657z"></path>
<path fill="#f6f6f6" style="fill: var(--color4, #f6f6f6)" d="M7.935 10.024l11.657 11.658v-11.657h-11.657z"></path>
<path fill="#000" style="fill: var(--color5, #000)" d="M47.659 12.266c0-2.366-1.749-3.703-4.773-3.703h-6.315v14.709h6.665c3.045 0 4.999-1.461 4.999-4.299 0-2.201-1.317-3.333-2.859-3.6v-0.041c1.214-0.411 2.283-1.255 2.283-3.065zM39.019 14.653v-4.011h3.929c1.461 0 2.263 0.72 2.263 2.016s-0.658 1.995-2.407 1.995h-3.785zM39.019 16.483h4.299c1.543 0 2.469 0.843 2.469 2.345 0 1.378-0.638 2.366-2.736 2.366h-4.032v-4.711zM54.517 23.581c-3.291 0-5.287-2.283-5.287-5.554s1.995-5.554 5.287-5.554c3.291 0 5.287 2.283 5.287 5.554s-1.995 5.554-5.287 5.554zM54.517 21.811c2.057 0 3.127-1.625 3.127-3.785 0-2.181-1.070-3.785-3.127-3.785s-3.127 1.605-3.127 3.785c0 2.16 1.070 3.785 3.127 3.785zM66.027 23.581c-3.291 0-5.287-2.283-5.287-5.554s1.995-5.554 5.287-5.554c3.291 0 5.287 2.283 5.287 5.554s-1.995 5.554-5.287 5.554zM66.027 21.811c2.057 0 3.127-1.625 3.127-3.785 0-2.181-1.070-3.785-3.127-3.785s-3.127 1.605-3.127 3.785c0 2.16 1.070 3.785 3.127 3.785zM72.807 8.563v14.709h2.16v-3.806l1.461-1.378 3.312 5.184h2.592l-4.423-6.603 3.991-3.909h-2.654l-4.279 4.217v-8.414h-2.16zM87.538 16.915c-1.522-0.35-2.695-0.432-2.695-1.502 0-0.741 0.699-1.234 1.995-1.234 1.687 0 2.098 0.843 2.242 1.666h2.098c-0.144-1.831-1.502-3.374-4.361-3.374-2.633 0-4.155 1.378-4.155 3.106 0 2.386 2.263 2.715 3.929 3.106 1.543 0.37 2.798 0.473 2.798 1.79 0 0.658-0.638 1.399-2.139 1.399-2.222 0-2.715-0.967-2.818-2.098h-2.098c0.103 2.222 1.563 3.806 4.958 3.806 2.551 0 4.279-1.255 4.279-3.271 0-2.51-2.098-2.942-4.032-3.394zM98.633 12.472c-1.769 0-2.859 0.823-3.415 1.646h-0.041v-5.554h-2.16v14.709h2.16v-6.398c0-1.563 1.131-2.571 2.715-2.571 1.502 0 2.098 0.905 2.098 2.325v6.645h2.181v-7.262c0-2.407-1.543-3.538-3.538-3.538zM108.795 21.811c-1.913 0-3.045-1.461-3.045-3.23h8.064c0-3.744-1.666-6.11-5.061-6.11-3.168 0-5.163 2.139-5.163 5.554 0 3.291 1.995 5.554 5.266 5.554 2.695 0 4.258-1.522 4.793-3.518h-2.16c-0.185 0.638-0.905 1.749-2.695 1.749zM108.754 14.179c1.749 0 2.901 1.173 2.901 2.798h-5.904c0-1.625 1.255-2.798 3.003-2.798zM115.337 8.563v14.709h2.181v-14.709h-2.181zM124.573 10.333v-1.769c-0.432-0.090-0.929-0.142-1.438-0.144h-0.002c-1.728 0-2.674 0.782-2.674 3.003v1.337h-1.502v1.769h1.502v8.743h2.181v-8.743h1.934v-1.769h-1.934v-1.152c0-1.193 0.535-1.337 1.934-1.275z"></path>
</symbol>
<symbol id="icon-logo-dark" viewBox="0 0 126 32">
<path fill="#f6f6f6" style="fill: var(--color4, #f6f6f6)" d="M0 2.286l14.008 13.862 13.421 13.567v-27.429h-27.429z"></path>
<path fill="#f6f6f6" style="fill: var(--color4, #f6f6f6)" d="M3.821 5.91l10.237 10.139 9.649 9.845h-19.886v-19.984z"></path>
<path fill="#4f2ee8" style="fill: var(--color1, #4f2ee8)" d="M23.771 25.959l-10.238-10.139-9.648-9.845h19.886v19.984z"></path>
<path fill="#4f2ee8" style="fill: var(--color1, #4f2ee8)" d="M7.935 10.024l11.657 11.658h-11.657v-11.657z"></path>
<path fill="#f6f6f6" style="fill: var(--color4, #f6f6f6)" d="M7.935 10.024l11.657 11.658v-11.657h-11.657z"></path>
<path fill="#f3f3f3" style="fill: var(--color6, #f3f3f3)" d="M47.659 12.266c0-2.366-1.749-3.703-4.773-3.703h-6.315v14.709h6.665c3.045 0 4.999-1.461 4.999-4.299 0-2.201-1.317-3.333-2.859-3.6v-0.041c1.214-0.411 2.283-1.255 2.283-3.065zM39.019 14.653v-4.011h3.929c1.461 0 2.263 0.72 2.263 2.016s-0.658 1.995-2.407 1.995h-3.785zM39.019 16.483h4.299c1.543 0 2.469 0.843 2.469 2.345 0 1.378-0.638 2.366-2.736 2.366h-4.032v-4.711zM54.517 23.581c-3.291 0-5.287-2.283-5.287-5.554s1.995-5.554 5.287-5.554c3.291 0 5.287 2.283 5.287 5.554s-1.995 5.554-5.287 5.554zM54.517 21.811c2.057 0 3.127-1.625 3.127-3.785 0-2.181-1.070-3.785-3.127-3.785s-3.127 1.605-3.127 3.785c0 2.16 1.070 3.785 3.127 3.785zM66.027 23.581c-3.291 0-5.287-2.283-5.287-5.554s1.995-5.554 5.287-5.554c3.291 0 5.287 2.283 5.287 5.554s-1.995 5.554-5.287 5.554zM66.027 21.811c2.057 0 3.127-1.625 3.127-3.785 0-2.181-1.070-3.785-3.127-3.785s-3.127 1.605-3.127 3.785c0 2.16 1.070 3.785 3.127 3.785zM72.807 8.563v14.709h2.16v-3.806l1.461-1.378 3.312 5.184h2.592l-4.423-6.603 3.991-3.909h-2.654l-4.279 4.217v-8.414h-2.16zM87.538 16.915c-1.522-0.35-2.695-0.432-2.695-1.502 0-0.741 0.699-1.234 1.995-1.234 1.687 0 2.098 0.843 2.242 1.666h2.098c-0.144-1.831-1.502-3.374-4.361-3.374-2.633 0-4.155 1.378-4.155 3.106 0 2.386 2.263 2.715 3.929 3.106 1.543 0.37 2.798 0.473 2.798 1.79 0 0.658-0.638 1.399-2.139 1.399-2.222 0-2.715-0.967-2.818-2.098h-2.098c0.103 2.222 1.563 3.806 4.958 3.806 2.551 0 4.279-1.255 4.279-3.271 0-2.51-2.098-2.942-4.032-3.394zM98.633 12.472c-1.769 0-2.859 0.823-3.415 1.646h-0.041v-5.554h-2.16v14.709h2.16v-6.398c0-1.563 1.131-2.571 2.715-2.571 1.502 0 2.098 0.905 2.098 2.325v6.645h2.181v-7.262c0-2.407-1.543-3.538-3.538-3.538zM108.795 21.811c-1.913 0-3.045-1.461-3.045-3.23h8.064c0-3.744-1.666-6.11-5.061-6.11-3.168 0-5.163 2.139-5.163 5.554 0 3.291 1.995 5.554 5.266 5.554 2.695 0 4.258-1.522 4.793-3.518h-2.16c-0.185 0.638-0.905 1.749-2.695 1.749zM108.754 14.179c1.749 0 2.901 1.173 2.901 2.798h-5.904c0-1.625 1.255-2.798 3.003-2.798zM115.337 8.563v14.709h2.181v-14.709h-2.181zM124.573 10.333v-1.769c-0.432-0.090-0.929-0.142-1.438-0.144h-0.002c-1.728 0-2.674 0.782-2.674 3.003v1.337h-1.502v1.769h1.502v8.743h2.181v-8.743h1.934v-1.769h-1.934v-1.152c0-1.193 0.535-1.337 1.934-1.275z"></path>
</symbol>
<symbol id="icon-logo-title" viewBox="0 0 32 32">
<path fill="#f6f6f6" style="fill: var(--color4, #f6f6f6)" d="M0 0l16.343 16.172 15.657 15.828v-32h-32z"></path>
<path fill="#f6f6f6" style="fill: var(--color4, #f6f6f6)" d="M4.457 4.228l11.943 11.829 11.257 11.485h-23.2v-23.315z"></path>
<path fill="#4f2ee8" style="fill: var(--color1, #4f2ee8)" d="M27.733 27.619l-11.944-11.829-11.256-11.485h23.2v23.315z"></path>
<path fill="#4f2ee8" style="fill: var(--color1, #4f2ee8)" d="M9.257 9.028l13.6 13.601h-13.6v-13.6z"></path>
<path fill="#f6f6f6" style="fill: var(--color4, #f6f6f6)" d="M9.257 9.028l13.6 13.601v-13.6h-13.6z"></path>
</symbol>
<symbol id="icon-mail" viewBox="0 0 32 32">
<path stroke-linejoin="round" stroke-linecap="round" stroke-miterlimit="4" stroke-width="2.2857" d="M28.666 24l-8.857-8M12.191 16l-8.857 8M2.666 9.334l10.887 7.621c0.881 0.617 1.322 0.926 1.802 1.045 0.423 0.106 0.866 0.106 1.289 0 0.48-0.119 0.921-0.427 1.802-1.045l10.887-7.621M9.066 26.666h13.867c2.24 0 3.36 0 4.216-0.435 0.756-0.391 1.358-0.992 1.738-1.726l0.011-0.022c0.434-0.855 0.434-1.976 0.434-4.216v-8.533c0-2.24 0-3.36-0.434-4.217-0.391-0.756-0.992-1.357-1.726-1.737l-0.022-0.011c-0.857-0.435-1.977-0.435-4.217-0.435h-13.865c-2.24 0-3.36 0-4.216 0.435-0.756 0.391-1.358 0.992-1.738 1.726l-0.010 0.022c-0.434 0.855-0.434 1.975-0.434 4.216v8.533c0 2.24 0 3.36 0.434 4.217 0.391 0.756 0.992 1.357 1.726 1.737l0.022 0.011c0.856 0.435 1.977 0.435 4.217 0.435z"></path>
</symbol>
<symbol id="icon-arrow-back" viewBox="0 0 32 32">
<path d="M4.5 19.6l11.2-11.233c0.133-0.133 0.277-0.227 0.433-0.283 0.146-0.053 0.314-0.084 0.489-0.084 0.004 0 0.008 0 0.011 0h-0.001c0.177 0 0.344 0.028 0.5 0.084 0.17 0.064 0.315 0.16 0.433 0.282l11.234 11.234c0.311 0.311 0.467 0.7 0.467 1.167s-0.167 0.867-0.5 1.2c-0.292 0.308-0.705 0.5-1.162 0.5-0.002 0-0.003 0-0.005 0h0c-0.001 0-0.003 0-0.005 0-0.457 0-0.87-0.192-1.161-0.499l-0.001-0.001-9.8-9.8-9.8 9.8c-0.311 0.311-0.693 0.467-1.149 0.467s-0.851-0.167-1.184-0.5c-0.308-0.292-0.5-0.705-0.5-1.162 0-0.002 0-0.003 0-0.005v0c0-0.001 0-0.003 0-0.005 0-0.457 0.192-0.87 0.499-1.161l0.001-0.001z"></path>
</symbol>
<symbol id="icon-user" viewBox="0 0 32 32">
<path fill="#4f2ee8" style="fill: var(--color1, #4f2ee8)" d="M5.334 29.334c0.107-5.81 4.841-10.478 10.666-10.478s10.56 4.669 10.666 10.468l0 0.010h-21.332zM16 17.334c-0.001 0-0.001 0-0.002 0-4.417 0-7.998-3.581-7.998-7.998 0-0.001 0-0.001 0-0.002v0c0-0.001 0-0.001 0-0.002 0-4.417 3.581-7.998 7.998-7.998 0.001 0 0.001 0 0.002 0h-0c0 0 0.001 0 0.002 0 4.417 0 7.998 3.581 7.998 7.998 0 0.001 0 0.001 0 0.002v-0c0 0.001 0 0.001 0 0.002 0 4.417-3.581 7.998-7.998 7.998-0.001 0-0.001 0-0.002 0h0z"></path>
</symbol>
<symbol id="icon-trash" viewBox="0 0 32 32">
<path fill="none" stroke="#fff" style="stroke: var(--color3, #fff)" stroke-linejoin="round" stroke-linecap="round" stroke-miterlimit="4" stroke-width="2.9091" d="M12 4h8M4 8h24M25.334 8l-0.935 14.026c-0.141 2.103-0.211 3.156-0.665 3.953-0.405 0.703-0.997 1.259-1.707 1.61l-0.023 0.010c-0.828 0.4-1.881 0.4-3.99 0.4h-4.026c-2.109 0-3.162 0-3.99-0.4-0.734-0.361-1.326-0.917-1.721-1.601l-0.010-0.019c-0.454-0.797-0.524-1.85-0.665-3.953l-0.935-14.026M13.334 14v6.666M18.666 14v6.666"></path>
</symbol>
<symbol id="icon-x-close-focus" viewBox="0 0 32 32">
<path fill="none" stroke="#4f2ee8" style="stroke: var(--color1, #4f2ee8)" stroke-linejoin="round" stroke-linecap="round" stroke-miterlimit="4" stroke-width="3.4286" d="M24 8l-16 16M8 8l16 16"></path>
</symbol>
<symbol id="icon-x-close" viewBox="0 0 32 32">
<path stroke-linejoin="round" stroke-linecap="round" stroke-miterlimit="4" stroke-width="3.4286" d="M24 8l-16 16M8 8l16 16"></path>
</symbol>
<symbol id="icon-support-ukraine" viewBox="0 0 20 32">
<path fill="#fff" style="fill: var(--color1, #fff)" d="M9.005 30.888c-1.738-1.269-2.974-3.137-3.405-5.296l-0.009-0.055h-5.591v-23.117c2.991 1.443 5.153 4.6 5.388 7.876l0.845 6.493-0.407-0.045c-0.893 0-1.676 0.812-1.676 1.608 0 0.752 0.595 1.383 1.379 1.548l1.018 0.226c1.675-3.051 2.63-6.042 2.63-8.973 0-2.646-0.36-5.291-0.422-7.997 0-1.202 0.485-2.3 1.253-3.156 0.783 0.857 1.253 1.954 1.253 3.156 0 2.706-0.423 5.351-0.423 7.997 0 2.93 0.955 5.922 2.631 8.973l1.018-0.226c0.783-0.165 1.378-0.811 1.378-1.548 0-0.811-0.783-1.608-1.675-1.608l-0.423 0.060 0.845-6.493c0.423-3.277 2.398-6.448 5.388-7.876v23.117h-5.576c-0.422 2.18-1.613 4.148-3.414 5.35-0.423 0.286-0.783 0.632-1.018 1.098-0.22-0.466-0.58-0.812-0.987-1.112zM2.647 17.556c0.235-0.857 0.893-1.609 1.738-2.075l-0.658-5.35c-0.246-1.699-0.975-3.195-2.043-4.382l0.007 0.008v11.783h0.956v0.015zM5.466 23.929c0-0.812 0.125-1.548 0.298-2.3l-0.784-0.18c-1.143-0.346-2.036-1.203-2.333-2.3h-0.957v4.78h3.775zM9.178 23.929c0-0.977-0.783-1.834-1.801-1.954-0.173 0.63-0.298 1.262-0.298 1.954h2.099zM9.178 25.552h-1.864c0.298 1.262 0.955 2.42 1.864 3.397v-3.397zM11.808 20.547c-0.72-1.263-1.377-2.585-1.8-3.968-0.423 1.383-1.080 2.705-1.801 3.968 0.72 0.165 1.315 0.631 1.8 1.157 0.486-0.526 1.082-0.992 1.802-1.157zM12.952 23.929c0-0.692-0.125-1.323-0.297-1.954-1.018 0.12-1.801 0.977-1.801 1.954h2.098zM12.717 25.552h-1.863v3.397c0.908-0.992 1.566-2.135 1.863-3.397zM18.34 23.929v-4.78h-0.956c-0.297 1.097-1.206 1.954-2.333 2.3l-0.783 0.18c0.172 0.752 0.297 1.488 0.297 2.3h3.775zM18.34 17.556v-11.8c-1.080 1.203-1.864 2.706-2.036 4.375l-0.658 5.35c0.846 0.466 1.504 1.203 1.738 2.075h0.956z"></path>
</symbol>
<symbol id="icon-bag" viewBox="0 0 32 32">
<path fill="#fff" style="fill: var(--color1, #fff)" d="M25.333 9.333h-4v-1.333c0-1.415-0.562-2.771-1.562-3.771s-2.357-1.562-3.771-1.562c-1.414 0-2.771 0.562-3.771 1.562s-1.562 2.357-1.562 3.771v1.333h-4c-0.354 0-0.693 0.14-0.943 0.391s-0.391 0.589-0.391 0.943v14.667c0 1.061 0.421 2.078 1.172 2.828s1.768 1.172 2.828 1.172h13.333c1.061 0 2.078-0.421 2.828-1.172s1.172-1.768 1.172-2.828v-14.667c0-0.354-0.14-0.693-0.39-0.943s-0.589-0.391-0.943-0.391zM13.333 8c0-0.707 0.281-1.386 0.781-1.886s1.178-0.781 1.886-0.781c0.707 0 1.386 0.281 1.886 0.781s0.781 1.178 0.781 1.886v1.333h-5.333v-1.333zM24 25.333c0 0.354-0.14 0.693-0.391 0.943s-0.589 0.391-0.943 0.391h-13.333c-0.354 0-0.693-0.14-0.943-0.391s-0.391-0.589-0.391-0.943v-13.333h2.667v1.333c0 0.354 0.14 0.693 0.391 0.943s0.589 0.391 0.943 0.391c0.354 0 0.693-0.14 0.943-0.391s0.391-0.589 0.391-0.943v-1.333h5.333v1.333c0 0.354 0.14 0.693 0.391 0.943s0.589 0.391 0.943 0.391c0.354 0 0.693-0.14 0.943-0.391s0.391-0.589 0.391-0.943v-1.333h2.667v13.333z"></path>
</symbol>
<symbol id="icon-bag-black" viewBox="0 0 32 32">
<path d="M25.334 9.333h-4v-1.333c0-2.946-2.388-5.334-5.334-5.334s-5.334 2.388-5.334 5.334v0 1.333h-4c-0.736 0-1.333 0.597-1.333 1.333 0 0.001 0 0.001 0 0.002v-0 14.666c0 2.209 1.791 4 4 4v0h13.333c2.209 0 4-1.791 4-4v0-14.666c0-0 0-0.001 0-0.002 0-0.736-0.597-1.333-1.333-1.333-0.001 0-0.001 0-0.002 0h0zM13.334 8c0.037-1.445 1.216-2.602 2.666-2.602s2.63 1.157 2.666 2.598l0 0.003v1.333h-5.334v-1.333zM24 25.333c0 0 0 0.001 0 0.002 0 0.736-0.597 1.333-1.333 1.333h-13.334c-0.736 0-1.333-0.597-1.333-1.333 0-0.001 0-0.001 0-0.002v0-13.333h2.667v1.333c0 0.736 0.597 1.333 1.333 1.333s1.333-0.597 1.333-1.333v0-1.333h5.334v1.333c0 0.737 0.597 1.334 1.334 1.334s1.334-0.597 1.334-1.334v0-1.333h2.666v13.333z"></path>
</symbol>
<symbol id="icon-up" viewBox="0 0 32 32">
<path fill="#4f2ee8" style="fill: var(--color1, #4f2ee8)" opacity="0.3" d="M32 16c0 8.837-7.163 16-16 16s-16-7.163-16-16c0-8.837 7.163-16 16-16s16 7.163 16 16z"></path>
<path fill="#4f2ee8" style="fill: var(--color1, #4f2ee8)" d="M29.5 16c0 7.456-6.044 13.5-13.5 13.5s-13.5-6.044-13.5-13.5c0-7.456 6.044-13.5 13.5-13.5s13.5 6.044 13.5 13.5z"></path>
<path fill="#fff" style="fill: var(--color2, #fff)" d="M11.688 17.35l4.2-4.213c0.050-0.050 0.104-0.085 0.163-0.106 0.055-0.020 0.118-0.031 0.183-0.031 0.001 0 0.003 0 0.004 0h-0c0.001 0 0.003 0 0.004 0 0.066 0 0.129 0.012 0.187 0.033l-0.004-0.001c0.064 0.024 0.118 0.060 0.162 0.106l4.213 4.213c0.116 0.116 0.175 0.262 0.175 0.438s-0.063 0.325-0.188 0.45c-0.11 0.116-0.264 0.188-0.436 0.188-0.001 0-0.001 0-0.002 0h0c-0.001 0-0.001 0-0.002 0-0.171 0-0.326-0.072-0.435-0.187l-0-0-3.675-3.675-3.675 3.675c-0.117 0.116-0.26 0.175-0.431 0.175s-0.319-0.063-0.444-0.188c-0.116-0.11-0.188-0.264-0.188-0.436 0-0.001 0-0.001 0-0.002v0c0-0.001 0-0.001 0-0.002 0-0.171 0.072-0.326 0.187-0.435l0-0z"></path>
</symbol>
</defs>
</svg>